<?xml version="1.0" encoding="UTF-8" ?><!DOCTYPE svg PUBLIC "-//W3C//DTD SVG 1.1//EN" "http://www.w3.org/Graphics/SVG/1.1/DTD/svg11.dtd"><svg xmlns="http://www.w3.org/2000/svg" width="440" height="440" viewBox="0 0 440 440"><rect width="440" height="440" fill="white"></rect><svg xmlns="http://www.w3.org/2000/svg" width="440" height="440" viewBox="0 0 440 440" x="0" y="0"><rect width="440" height="440" fill="#FFFFFF"></rect><rect width="394" height="394" fill="#969696" x="23" y="23"></rect><svg xmlns="http://www.w3.org/2000/svg" xmlns:xlink="http://www.w3.org/1999/xlink" width="392" height="392" viewBox="0 0 392 392" x="24" y="24"><rect width="392" height="392" fill="rgb(224,224,224)"></rect><g class="squares"><rect width="49" height="49" x="0" y="343" fill="rgb(224,224,224)"></rect><rect width="49" height="49" x="0" y="294" fill="rgb(255,255,255)"></rect><rect width="49" height="49" x="0" y="245" fill="rgb(224,224,224)"></rect><rect width="49" height="49" x="0" y="196" fill="rgb(255,255,255)"></rect><rect width="49" height="49" x="0" y="147" fill="rgb(224,224,224)"></rect><rect width="49" height="49" x="0" y="98" fill="rgb(255,255,255)"></rect><rect width="49" height="49" x="0" y="49" fill="rgb(224,224,224)"></rect><rect width="49" height="49" x="0" y="0" fill="rgb(255,255,255)"></rect><rect width="49" height="49" x="49" y="343" fill="rgb(255,255,255)"></rect><rect width="49" height="49" x="49" y="294" fill="rgb(224,224,224)"></rect><rect width="49" height="49" x="49" y="245" fill="rgb(255,255,255)"></rect><rect width="49" height="49" x="49" y="196" fill="rgb(224,224,224)"></rect><rect width="49" height="49" x="49" y="147" fill="rgb(255,255,255)"></rect><rect width="49" height="49" x="49" y="98" fill="rgb(224,224,224)"></rect><rect width="49" height="49" x="49" y="49" fill="rgb(255,255,255)"></rect><rect width="49" height="49" x="49" y="0" fill="rgb(224,224,224)"></rect><rect width="49" height="49" x="98" y="343" fill="rgb(224,224,224)"></rect><rect width="49" height="49" x="98" y="294" fill="rgb(255,255,255)"></rect><rect width="49" height="49" x="98" y="245" fill="rgb(224,224,224)"></rect><rect width="49" height="49" x="98" y="196" fill="rgb(255,255,255)"></rect><rect width="49" height="49" x="98" y="147" fill="rgb(224,224,224)"></rect><rect width="49" height="49" x="98" y="98" fill="rgb(255,255,255)"></rect><rect width="49" height="49" x="98" y="49" fill="rgb(224,224,224)"></rect><rect width="49" height="49" x="98" y="0" fill="rgb(255,255,255)"></rect><rect width="49" height="49" x="147" y="343" fill="rgb(255,255,255)"></rect><rect width="49" height="49" x="147" y="294" fill="rgb(224,224,224)"></rect><rect width="49" height="49" x="147" y="245" fill="rgb(255,255,255)"></rect><rect width="49" height="49" x="147" y="196" fill="rgb(224,224,224)"></rect><rect width="49" height="49" x="147" y="147" fill="rgb(255,255,255)"></rect><rect width="49" height="49" x="147" y="98" fill="rgb(224,224,224)"></rect><rect width="49" height="49" x="147" y="49" fill="rgb(255,255,255)"></rect><rect width="49" height="49" x="147" y="0" fill="rgb(224,224,224)"></rect><rect width="49" height="49" x="196" y="343" fill="rgb(224,224,224)"></rect><rect width="49" height="49" x="196" y="294" fill="rgb(255,255,255)"></rect><rect width="49" height="49" x="196" y="245" fill="rgb(224,224,224)"></rect><rect width="49" height="49" x="196" y="196" fill="rgb(255,255,255)"></rect><rect width="49" height="49" x="196" y="147" fill="rgb(224,224,224)"></rect><rect width="49" height="49" x="196" y="98" fill="rgb(255,255,255)"></rect><rect width="49" height="49" x="196" y="49" fill="rgb(224,224,224)"></rect><rect width="49" height="49" x="196" y="0" fill="rgb(255,255,255)"></rect><rect width="49" height="49" x="245" y="343" fill="rgb(255,255,255)"></rect><rect width="49" height="49" x="245" y="294" fill="rgb(224,224,224)"></rect><rect width="49" height="49" x="245" y="245" fill="rgb(255,255,255)"></rect><rect width="49" height="49" x="245" y="196" fill="rgb(224,224,224)"></rect><rect width="49" height="49" x="245" y="147" fill="rgb(255,255,255)"></rect><rect width="49" height="49" x="245" y="98" fill="rgb(224,224,224)"></rect><rect width="49" height="49" x="245" y="49" fill="rgb(255,255,255)"></rect><rect width="49" height="49" x="245" y="0" fill="rgb(224,224,224)"></rect><rect width="49" height="49" x="294" y="343" fill="rgb(224,224,224)"></rect><rect width="49" height="49" x="294" y="294" fill="rgb(255,255,255)"></rect><rect width="49" height="49" x="294" y="245" fill="rgb(224,224,224)"></rect><rect width="49" height="49" x="294" y="196" fill="rgb(255,255,255)"></rect><rect width="49" height="49" x="294" y="147" fill="rgb(224,224,224)"></rect><rect width="49" height="49" x="294" y="98" fill="rgb(255,255,255)"></rect><rect width="49" height="49" x="294" y="49" fill="rgb(224,224,224)"></rect><rect width="49" height="49" x="294" y="0" fill="rgb(255,255,255)"></rect><rect width="49" height="49" x="343" y="343" fill="rgb(255,255,255)"></rect><rect width="49" height="49" x="343" y="294" fill="rgb(224,224,224)"></rect><rect width="49" height="49" x="343" y="245" fill="rgb(255,255,255)"></rect><rect width="49" height="49" x="343" y="196" fill="rgb(224,224,224)"></rect><rect width="49" height="49" x="343" y="147" fill="rgb(255,255,255)"></rect><rect width="49" height="49" x="343" y="98" fill="rgb(224,224,224)"></rect><rect width="49" height="49" x="343" y="49" fill="rgb(255,255,255)"></rect><rect width="49" height="49" x="343" y="0" fill="rgb(224,224,224)"></rect><g></g></g><g><svg xmlns="http://www.w3.org/2000/svg" xmlns:xlink="http://www.w3.org/1999/xlink" viewBox="0 0 2048 2048" class="p" width="49" height="49" x="0" y="294"> <path style="color:black;" d="m1024 205h-540q-40 100-40 209 0 185 105 332t270 210q-71 33-115 99t-45 151q0 105 70 182t172 89q-81 61-81 161 0 84 59 144t145 60q84 0 144-60t60-144q0-100-81-161 102-12 172-89t70-182q0-84-45-150t-116-100q165-63 270-210t105-332q0-108-39-209h-540z" fill-rule="nonzero" transform="translate(0,2048) scale(1,-1)" display="block" fill="#000"></path> </svg><svg xmlns:rdf="http://www.w3.org/1999/02/22-rdf-syntax-ns#" xmlns="http://www.w3.org/2000/svg" height="49" width="49" version="1.1" xmlns:cc="http://creativecommons.org/ns#" xmlns:dc="http://purl.org/dc/elements/1.1/" viewBox="0 0 2048 2048" class="r" x="0" y="49"> <path style="color:black;" d="m1161 1706h170v137h274v-375l-222-171v-478l170-170v-205h153v-239h-1365v239h153v205l171 170v478l-222 171v375h273v-137h171v137h274v-137zm-597-1246v-102h920v102h-920zm460 1092h-512v-46l73-55h879l71 55v46h-511zm0-169h-350l60-47v-57h580v57l60 47h-350zm0-546h-290v-46l-60-58h700l-60 58v46h-290zm0-172h-414l-46-43v-58h920v58l-46 43h-414z" fill-rule="nonzero" transform="translate(0,2048) scale(1,-1)" display="block" fill="#000"></path> <g fill-rule="nonzero" fill="#fff"> <path style="color:black;" d="m564 1588v102h920v-102h-920z" display="block"></path> <path style="color:black;" d="m1024 496h-512v46l73 55h879l71-55v-46h-511z" display="block"></path> <path style="color:black;" d="m1024 665h-350l60 47v57h580v-57l60-47h-350z" display="block"></path> <path style="color:black;" d="m1024 1211h-290v46l-60 58h700l-60-58v-46h-290z" display="block"></path> <path style="color:black;" d="m1024 1383h-414l-46 43v58h920v-58l-46-43h-414z" display="block"></path> </g> </svg><svg xmlns:rdf="http://www.w3.org/1999/02/22-rdf-syntax-ns#" xmlns="http://www.w3.org/2000/svg" height="49" width="49" version="1.1" xmlns:cc="http://creativecommons.org/ns#" xmlns:dc="http://purl.org/dc/elements/1.1/" viewBox="0 0 2048 2048" class="k" x="49" y="343"> <g fill-rule="nonzero" fill="#fff"> <path style="color:black;" d="m1060 1261q172 3 282 17t198 33q55-54 122-103t94-84q48-65 48-162 0-89-43-149-77-113-235-113-92 0-192 40-91 36-132 78-85 82-124 216-15 46-16 117t-2 110z" display="block"></path> <path style="color:black;" d="m988 1260q0-40-2-110t-15-118q-41-134-124-216-43-42-132-78-102-40-193-40-158 0-234 113-43 60-43 150 0 98 48 161 25 36 96 89t120 98q87-19 196-33t283-16z" display="block"></path> <path style="color:black;" d="m1024 1009q7-28 12-39 10-39 23-66 6-17 17-39t25-52q8-17 17-41t18-49q8-20 8-43 0-49-35-83t-85-35q-119 0-119 119 0 23 8 43 22 65 34 90 13 29 24 51t19 40q13 33 22 66 2 6 12 38z" display="block"></path> </g> <g fill-rule="nonzero"> <path style="color:black;" d="m1133 865q0 29 6 82t21 84q37 81 106 150 20 20 86 54 65 32 139 32 56 0 111-19t84-60q25-34 25-110 0-60-49-112-32-33-69-66t-71-79q-58 20-161 31t-228 13zm-73-78q172-3 282-17t198-33q55 54 122 103t94 84q48 65 48 162 0 89-43 149-77 113-235 113-92 0-192-40-91-36-132-78-85-82-124-216-15-46-16-117t-2-110zm458-173q-184 51-490 51-308 0-496-52l15-101q189 49 481 49 291 0 474-48l16 101zm26-299l-30 118q-195 45-490 45-292 0-488-45l-32-119q190 58 521 58 159 0 295-16t224-41zm-1081 207l-33 187q-1 0-3 4-5 7-28 18t-55 40q-44 37-68 60t-45 50q-61 84-68 203-10 115 93 229 104 114 281 107 66-4 155-32 29-12 59-23t61-24q16-8 28-16-5 21-5 42 0 78 55 133t134 56q78 0 133-55t55-133q0-16-4-42 14 9 27 15 46 20 121 47 86 29 155 33 177 8 280-107 101-114 94-229-8-119-69-203-20-27-45-50t-67-60q-33-28-56-39t-27-19q-1-2-2-3t-1-2l-32-188 66-247q-50-45-224-74t-402-29q-232 0-408 30t-221 77l66 244zm525 266q0 40-2 110t-15 118q-41 134-124 216-43 42-132 78-102 40-193 40-158 0-234-113-43-60-43-150 0-98 48-161 25-36 96-89t120-98q87 19 196 33t283 16zm36 251q7 28 12 39 10 39 23 66 6 17 17 39t25 52q8 17 17 41t18 49q8 20 8 43 0 49-35 83t-85 35q-119 0-119-119 0-23 8-43 22-65 34-90 13-29 24-51t19-40q13-33 22-66 2-6 12-38zm35 520h-71v131h-83q-34 0-34 33v1q0 33 34 33h83v85q0 35 36 35 35 0 35-35v-85h86q33 0 33-33v-1q0-33-33-33l-85-1-1-130zm-147-694q-125-2-228-13t-161-31q-30 37-69 74t-70 71q-50 51-50 112 0 75 25 110 27 40 83 59t113 20q72 0 138-32 65-34 86-54 68-69 106-150 13-30 19-83t8-83zm112 345q-2 10-5 17-6 20-10 29-3 7-8 17t-10 23q-3 7-7 18t-8 22q-3 9-3 19 0 53 51 53 53 0 53-52 0-13-4-19-14-38-15-41-15-30-19-39-7-16-9-29-3-6-4-10t-2-8z" transform="translate(0,2048) scale(1,-1)" display="block" fill="#000"></path> <path style="color:black;" d="m1518 1434q-184-51-490-51-308 0-496 52l15 101q189-49 481-49 291 0 474 48l16-101z" display="block" fill="#fff"></path> <path style="color:black;" d="m1544 1733-30-118q-195-45-490-45-292 0-488 45l-32 119q190-58 521-58 159 0 295 16t224 41z" display="block" fill="#fff"></path> </g> </svg><svg xmlns="http://www.w3.org/2000/svg" xmlns:xlink="http://www.w3.org/1999/xlink" viewBox="0 0 2048 2048" class="p" width="49" height="49" x="49" y="294"> <path style="color:black;" d="m1024 205h-540q-40 100-40 209 0 185 105 332t270 210q-71 33-115 99t-45 151q0 105 70 182t172 89q-81 61-81 161 0 84 59 144t145 60q84 0 144-60t60-144q0-100-81-161 102-12 172-89t70-182q0-84-45-150t-116-100q165-63 270-210t105-332q0-108-39-209h-540z" fill-rule="nonzero" transform="translate(0,2048) scale(1,-1)" display="block" fill="#000"></path> </svg><svg xmlns:rdf="http://www.w3.org/1999/02/22-rdf-syntax-ns#" xmlns="http://www.w3.org/2000/svg" height="49" width="49" version="1.1" xmlns:cc="http://creativecommons.org/ns#" xmlns:dc="http://purl.org/dc/elements/1.1/" viewBox="0 0 2048 2048" class="r" x="98" y="343"> <path style="color:black;" d="m1161 1706h170v137h274v-375l-222-171v-478l170-170v-205h153v-239h-1365v239h153v205l171 170v478l-222 171v375h273v-137h171v137h274v-137zm-597-1246v-102h920v102h-920zm460 1092h-512v-46l73-55h879l71 55v46h-511zm0-169h-350l60-47v-57h580v57l60 47h-350zm0-546h-290v-46l-60-58h700l-60 58v46h-290zm0-172h-414l-46-43v-58h920v58l-46 43h-414z" fill-rule="nonzero" transform="translate(0,2048) scale(1,-1)" display="block" fill="#000"></path> <g fill-rule="nonzero" fill="#fff"> <path style="color:black;" d="m564 1588v102h920v-102h-920z" display="block"></path> <path style="color:black;" d="m1024 496h-512v46l73 55h879l71-55v-46h-511z" display="block"></path> <path style="color:black;" d="m1024 665h-350l60 47v57h580v-57l60-47h-350z" display="block"></path> <path style="color:black;" d="m1024 1211h-290v46l-60 58h700l-60-58v-46h-290z" display="block"></path> <path style="color:black;" d="m1024 1383h-414l-46 43v58h920v-58l-46-43h-414z" display="block"></path> </g> </svg><svg xmlns="http://www.w3.org/2000/svg" xmlns:xlink="http://www.w3.org/1999/xlink" viewBox="0 0 2048 2048" class="p" width="49" height="49" x="98" y="294"> <path style="color:black;" d="m1024 205h-540q-40 100-40 209 0 185 105 332t270 210q-71 33-115 99t-45 151q0 105 70 182t172 89q-81 61-81 161 0 84 59 144t145 60q84 0 144-60t60-144q0-100-81-161 102-12 172-89t70-182q0-84-45-150t-116-100q165-63 270-210t105-332q0-108-39-209h-540z" fill-rule="nonzero" transform="translate(0,2048) scale(1,-1)" display="block" fill="#000"></path> </svg><svg xmlns:rdf="http://www.w3.org/1999/02/22-rdf-syntax-ns#" xmlns="http://www.w3.org/2000/svg" height="49" width="49" version="1.1" xmlns:cc="http://creativecommons.org/ns#" xmlns:dc="http://purl.org/dc/elements/1.1/" viewBox="0 0 2048 2048" class="R" x="98" y="0"> <path style="color:black;" d="m1161 1706h170v137h274v-375l-222-171v-478l170-170v-205h153v-239h-1365v239h153v205l171 170v478l-222 171v375h273v-137h171v137h274v-137zm478-1330h-1230v-103h1230v103zm-155 204h-920v-136h920v136zm-170 717h-580v-478h580v478zm222 239v239h-137v-137h-308v137h-135v-137h-307v137h-137v-239h1024zm-77-887l-103 102h-663l-105-102h871zm-110 716l127 103h-904l128-103h649z" fill-rule="nonzero" transform="translate(0,2048) scale(1,-1)" display="block" fill="#000"></path> <g fill-rule="nonzero" fill="#fff"> <path style="color:black;" d="m1639 1672h-1230v103h1230v-103z" display="block"></path> <path style="color:black;" d="m1484 1468h-920v136h920v-136z" display="block"></path> <path style="color:black;" d="m1314 751h-580v478h580v-478z" display="block"></path> <path style="color:black;" d="m1536 512v-239h-137v137h-308v-137h-135v137h-307v-137h-137v239h1024z" display="block"></path> </g> <path style="color:black;" d="m1459 1399-103-102h-663l-105 102h871z" fill-rule="nonzero" display="block" fill="#fff"></path> <path style="color:black;" d="m1349 683 127-103h-904l128 103h649z" fill-rule="nonzero" display="block" fill="#fff"></path> </svg><svg xmlns:rdf="http://www.w3.org/1999/02/22-rdf-syntax-ns#" xmlns="http://www.w3.org/2000/svg" height="49" width="49" version="1.1" xmlns:cc="http://creativecommons.org/ns#" xmlns:dc="http://purl.org/dc/elements/1.1/" viewBox="0 0 2048 2048" class="P" x="147" y="98"> <path style="color:black;" d="m1024 273h491q21 72 21 141 0 156-86 283t-223 187q-66 5-66 72 0 53 67 78 93 65 93 172 0 77-52 135t-126 67q-60 5-60 68 0 28 22 52 54 42 54 110 0 56-40 96t-95 40q-57 0-96-40t-40-96q0-67 54-110 22-22 22-52 0-63-59-68-75-9-126-67t-52-135q0-107 93-172 67-26 67-78 0-67-67-72-136-60-222-187t-86-283q0-74 21-141h491zm0-68h-540q-40 100-40 209 0 185 105 332t270 210q-71 33-115 99t-45 151q0 105 70 182t172 89q-81 61-81 161 0 84 59 144t145 60q84 0 144-60t60-144q0-100-81-161 102-12 172-89t70-182q0-84-45-150t-116-100q165-63 270-210t105-332q0-108-39-209h-540z" fill-rule="nonzero" transform="translate(0,2048) scale(1,-1)" display="block" fill="#000"></path> <path style="color:black;" d="m1024 1775h491q21-72 21-141 0-156-86-283t-223-187q-66-5-66-72 0-53 67-78 93-65 93-172 0-77-52-135t-126-67q-60-5-60-68 0-28 22-52 54-42 54-110 0-56-40-96t-95-40q-57 0-96 40t-40 96q0 67 54 110 22 22 22 52 0 63-59 68-75 9-126 67t-52 135q0 107 93 172 67 26 67 78 0 67-67 72-136 60-222 187t-86 283q0 74 21 141h491z" fill-rule="nonzero" display="block" fill="#fff"></path> </svg><svg xmlns:rdf="http://www.w3.org/1999/02/22-rdf-syntax-ns#" xmlns="http://www.w3.org/2000/svg" height="49" width="49" version="1.1" xmlns:cc="http://creativecommons.org/ns#" xmlns:dc="http://purl.org/dc/elements/1.1/" viewBox="0 0 2048 2048" class="K" x="196" y="98"> <path style="color:black;" d="m524 583q190 48 504 48 308 0 497-46l25 147q-201 53-526 53-327 0-525-54l25-148zm-61-61l-33 187q-1 0-3 4-5 7-28 18t-55 40q-44 37-68 60t-45 50q-61 84-68 203-10 115 93 229 104 114 281 107 66-4 155-32 29-12 59-23t61-24q16-8 28-16-5 21-5 42 0 78 55 133t134 56q78 0 133-55t55-133q0-16-4-42 14 9 27 15 46 20 121 47 86 29 155 33 177 8 280-107 101-114 94-229-8-119-69-203-20-27-45-50t-67-60q-33-28-56-39t-27-19q-1-2-2-3t-1-2l-32-188 66-247q-50-45-224-74t-402-29q-232 0-408 30t-221 77l66 244zm1081-117l-30 115q-198 44-490 44-291 0-489-44l-32-116q191 56 522 56 329 0 519-55zm26-94q-193 78-542 78-362 0-548-80 176-70 545-70 176 0 321 19t224 53zm-581 542q-1 39-3 77t-15 86q-41 134-124 216-43 42-132 78-102 40-193 40-158 0-234-113-43-60-43-150 0-98 48-161 29-37 74-74t84-67q175 63 538 68zm35 186q7 28 12 39 10 39 23 66 6 17 17 39t25 52q8 17 17 41t18 49q8 20 8 43 0 49-35 83t-85 35q-119 0-119-119 0-23 8-43 22-65 34-90 13-29 24-51t19-40q13-33 22-66 2-6 12-38zm34-186q172-2 315-20t224-47q38 30 83 66t75 75q48 61 48 161 0 90-43 150-77 112-234 112-94 0-193-39-87-35-132-78-84-84-124-216-14-47-16-85t-3-79zm1 706h-71v131h-83q-34 0-34 33v1q0 33 34 33h83v85q0 35 36 35 35 0 35-35v-85h86q33 0 33-33v-1q0-33-33-33l-85-1-1-130z" fill-rule="nonzero" transform="translate(0,2048) scale(1,-1)" display="block" fill="#000"></path> <g fill-rule="nonzero" fill="#fff"> <path style="color:black;" d="m524 1465q190-48 504-48 308 0 497 46l25-147q-201-53-526-53-327 0-525 54l25 148z" display="block"></path> <path style="color:black;" d="m1544 1643-30-115q-198-44-490-44-291 0-489 44l-32 116q191-56 522-56 329 0 519 55z" display="block"></path> <path style="color:black;" d="m1570 1737q-193-78-542-78-362 0-548 80 176 70 545 70 176 0 321-19t224-53z" display="block"></path> <path style="color:black;" d="m989 1195q-1-39-3-77t-15-86q-41-134-124-216-43-42-132-78-102-40-193-40-158 0-234 113-43 60-43 150 0 98 48 161 29 37 74 74t84 67q175-63 538-68z" display="block"></path> <path style="color:black;" d="m1024 1009q7-28 12-39 10-39 23-66 6-17 17-39t25-52q8-17 17-41t18-49q8-20 8-43 0-49-35-83t-85-35q-119 0-119 119 0 23 8 43 22 65 34 90 13 29 24 51t19 40q13 33 22 66 2 6 12 38z" display="block"></path> <path style="color:black;" d="m1058 1195q172 2 315 20t224 47q38-30 83-66t75-75q48-61 48-161 0-90-43-150-77-112-234-112-94 0-193 39-87 35-132 78-84 84-124 216-14 47-16 85t-3 79z" display="block"></path> </g> </svg><svg xmlns="http://www.w3.org/2000/svg" xmlns:xlink="http://www.w3.org/1999/xlink" viewBox="0 0 2048 2048" class="p" width="49" height="49" x="245" y="294"> <path style="color:black;" d="m1024 205h-540q-40 100-40 209 0 185 105 332t270 210q-71 33-115 99t-45 151q0 105 70 182t172 89q-81 61-81 161 0 84 59 144t145 60q84 0 144-60t60-144q0-100-81-161 102-12 172-89t70-182q0-84-45-150t-116-100q165-63 270-210t105-332q0-108-39-209h-540z" fill-rule="nonzero" transform="translate(0,2048) scale(1,-1)" display="block" fill="#000"></path> </svg><svg xmlns="http://www.w3.org/2000/svg" xmlns:xlink="http://www.w3.org/1999/xlink" viewBox="0 0 2048 2048" class="p" width="49" height="49" x="245" y="196"> <path style="color:black;" d="m1024 205h-540q-40 100-40 209 0 185 105 332t270 210q-71 33-115 99t-45 151q0 105 70 182t172 89q-81 61-81 161 0 84 59 144t145 60q84 0 144-60t60-144q0-100-81-161 102-12 172-89t70-182q0-84-45-150t-116-100q165-63 270-210t105-332q0-108-39-209h-540z" fill-rule="nonzero" transform="translate(0,2048) scale(1,-1)" display="block" fill="#000"></path> </svg><svg xmlns:rdf="http://www.w3.org/1999/02/22-rdf-syntax-ns#" xmlns="http://www.w3.org/2000/svg" height="49" width="49" version="1.1" xmlns:cc="http://creativecommons.org/ns#" xmlns:dc="http://purl.org/dc/elements/1.1/" viewBox="0 0 2048 2048" class="b" x="294" y="196"> <path style="color:black;" d="m1290 582l-42 102q-102 22-224 22-121 0-222-22l-42-101q124 31 264 31 138 0 266-32zm-84 206l-29 70v27q-76 11-153 11-75 0-152-11l-1-27-27-70q85 15 180 15 96 0 182-15zm-35-378q-40 30-80 95h-32q0-49 23-95h89zm-206 0q23 49 23 95h-32q-39-64-81-95h90zm59-18q-14-57-34-79t-53-46q-36-25-85-42t-109-9l-281 39q-17 2-30 0t-26-2q-21 0-53-9t-51-28l-97 159q18 20 32 28t33 17q58 27 124 33 28 2 55 1t56 2q54-9 108-16t110-16q60 0 81 12 11 6 35 22t48 47q-53 6-108 20t-97 31l104 258q-78 45-109 72t-49 64q-26 46-33 89t-7 77q1 60 28 132t104 130q63 48 123 99t119 119q-74 38-74 121 0 56 39 96t97 40q56 0 96-40t40-96q0-82-74-121 58-68 117-119t125-99q75-57 102-129t29-133q0-34-7-77t-32-89q-20-36-50-63t-108-73l104-258q-44-16-99-30t-106-21q23-31 47-47t36-22q21-12 81-12 54 8 108 15t110 17q27-3 54-2t57-1q64-6 124-33 18-9 32-17t33-28l-98-159q-18 18-50 27t-53 10q-13 0-26 2t-31 0l-280-39q-60-9-111 8t-85 45q-33 27-52 46t-33 77zm-37 744v-85q0-37 37-37t37 37v86h90q35 0 35 36t-35 36h-90v90q0 37-37 37t-37-37v-90h-88q-35 0-35-36t35-36l88-1z" fill-rule="nonzero" transform="translate(0,2048) scale(1,-1)" display="block" fill="#000"></path> <g fill-rule="nonzero" fill="#fff"> <path style="color:black;" d="m1290 1466-42-102q-102-22-224-22-121 0-222 22l-42 101q124-31 264-31 138 0 266 32z" display="block"></path> <path style="color:black;" d="m1206 1260-29-70v-27q-76-11-153-11-75 0-152 11l-1 27-27 70q85-15 180-15 96 0 182 15z" display="block"></path> <path style="color:black;" d="m1171 1638q-40-30-80-95h-32q0 49 23 95h89z" display="block"></path> <path style="color:black;" d="m965 1638q23-49 23-95h-32q-39 64-81 95h90z" display="block"></path> <path style="color:black;" d="m987 912v85q0 37 37 37t37-37v-86h90q35 0 35-36t-35-36h-90v-90q0-37-37-37t-37 37v90h-88q-35 0-35 36t35 36l88 1z" display="block"></path> </g> </svg><svg xmlns="http://www.w3.org/2000/svg" xmlns:xlink="http://www.w3.org/1999/xlink" viewBox="0 0 2048 2048" class="p" width="49" height="49" x="343" y="294"> <path style="color:black;" d="m1024 205h-540q-40 100-40 209 0 185 105 332t270 210q-71 33-115 99t-45 151q0 105 70 182t172 89q-81 61-81 161 0 84 59 144t145 60q84 0 144-60t60-144q0-100-81-161 102-12 172-89t70-182q0-84-45-150t-116-100q165-63 270-210t105-332q0-108-39-209h-540z" fill-rule="nonzero" transform="translate(0,2048) scale(1,-1)" display="block" fill="#000"></path> </svg><svg xmlns:rdf="http://www.w3.org/1999/02/22-rdf-syntax-ns#" xmlns="http://www.w3.org/2000/svg" height="49" width="49" version="1.1" xmlns:cc="http://creativecommons.org/ns#" xmlns:dc="http://purl.org/dc/elements/1.1/" viewBox="0 0 2048 2048" class="P" x="343" y="49"> <path style="color:black;" d="m1024 273h491q21 72 21 141 0 156-86 283t-223 187q-66 5-66 72 0 53 67 78 93 65 93 172 0 77-52 135t-126 67q-60 5-60 68 0 28 22 52 54 42 54 110 0 56-40 96t-95 40q-57 0-96-40t-40-96q0-67 54-110 22-22 22-52 0-63-59-68-75-9-126-67t-52-135q0-107 93-172 67-26 67-78 0-67-67-72-136-60-222-187t-86-283q0-74 21-141h491zm0-68h-540q-40 100-40 209 0 185 105 332t270 210q-71 33-115 99t-45 151q0 105 70 182t172 89q-81 61-81 161 0 84 59 144t145 60q84 0 144-60t60-144q0-100-81-161 102-12 172-89t70-182q0-84-45-150t-116-100q165-63 270-210t105-332q0-108-39-209h-540z" fill-rule="nonzero" transform="translate(0,2048) scale(1,-1)" display="block" fill="#000"></path> <path style="color:black;" d="m1024 1775h491q21-72 21-141 0-156-86-283t-223-187q-66-5-66-72 0-53 67-78 93-65 93-172 0-77-52-135t-126-67q-60-5-60-68 0-28 22-52 54-42 54-110 0-56-40-96t-95-40q-57 0-96 40t-40 96q0 67 54 110 22 22 22 52 0 63-59 68-75 9-126 67t-52 135q0 107 93 172 67 26 67 78 0 67-67 72-136 60-222 187t-86 283q0 74 21 141h491z" fill-rule="nonzero" display="block" fill="#fff"></path> </svg></g><g></g></svg><g font-size="14.7" fill="#000000" font-family="Verdana" font-weight="bold" pointer-events="none"><text x="44.09" y="19.59">h</text><text x="44.09" y="430.7">h</text><text x="93.09" y="19.59">g</text><text x="93.09" y="430.7">g</text><text x="142.09" y="19.59">f</text><text x="142.09" y="430.7">f</text><text x="191.09" y="19.59">e</text><text x="191.09" y="430.7">e</text><text x="240.09" y="19.59">d</text><text x="240.09" y="430.7">d</text><text x="289.09" y="19.59">c</text><text x="289.09" y="430.7">c</text><text x="338.09" y="19.59">b</text><text x="338.09" y="430.7">b</text><text x="387.09" y="19.59">a</text><text x="387.09" y="430.7">a</text><text y="53.792" x="9.3">1</text><text y="53.792" x="418.94">1</text><text y="102.792" x="9.3">2</text><text y="102.792" x="418.94">2</text><text y="151.792" x="9.3">3</text><text y="151.792" x="418.94">3</text><text y="200.792" x="9.3">4</text><text y="200.792" x="418.94">4</text><text y="249.792" x="9.3">5</text><text y="249.792" x="418.94">5</text><text y="298.792" x="9.3">6</text><text y="298.792" x="418.94">6</text><text y="347.792" x="9.3">7</text><text y="347.792" x="418.94">7</text><text y="396.792" x="9.3">8</text><text y="396.792" x="418.94">8</text></g><polygon stroke-width="1" stroke="#000" fill="#ffffff" points="415,1 439,1 427,25"></polygon></svg></svg>